# xmcd
#
# Track frame offsets:
#	150
#	15591
#	29973
#	46489
#	64321
#	81016
#	95675
#	111415
#	129783
#	147751
#	159982
#	173528
#	189654
#
# Disc length: 2817 seconds
#
# Revision: 5
# Processed by: cddbd v1.5.2PL0 Copyright (c) Steve Scherf et al.
# Submitted via: EasyCDDAExtractor 15.3.0.1
#
DISCID=ad0aff0d
DTITLE=Paulina Rubio - Gran City Pop (Deluxe Edition)
DYEAR=2009
DGENRE=Latin
TTITLE0=Causa Y Efecto
TTITLE1=La Danza Del Escorpion
TTITLE2=Enseñame
TTITLE3=Melodia De Tu Alma
TTITLE4=Mas Que Amigo
TTITLE5=Ni Rosas Ni Juguetes
TTITLE6=Amaneci Sin Ti
TTITLE7=Algo De Ti
TTITLE8=A Contraluz
TTITLE9=Escaleras De Arena
TTITLE10=Ya Fue
TTITLE11=Causa Y Efecto (Version Banda)
TTITLE12=Causa Y Efecto (DJ George Figares Club Mix - Radio Edit)
EXTD=
EXTT0=
EXTT1=
EXTT2=
EXTT3=
EXTT4=
EXTT5=
EXTT6=
EXTT7=
EXTT8=
EXTT9=
EXTT10=
EXTT11=
EXTT12=
PLAYORDER=
